<svg width="40" height="40" viewBox="0 0 40 40" fill="none" xmlns="http://www.w3.org/2000/svg">
<path fill-rule="evenodd" clip-rule="evenodd" d="M31.1784 14.6607C31.1784 16.7539 31.7316 17.9877 32.9491 19.4095C33.8717 20.4569 34.1666 21.8015 34.1666 23.2602C34.1666 24.7172 33.6879 26.1004 32.7288 27.2234C31.4732 28.5696 29.7025 29.4291 27.8953 29.5785C25.2765 29.8017 22.656 29.9897 20.0007 29.9897C17.3438 29.9897 14.725 29.8773 12.1062 29.5785C10.2973 29.4291 8.52662 28.5696 7.27269 27.2234C6.31362 26.1004 5.83325 24.7172 5.83325 23.2602C5.83325 21.8015 6.12975 20.4569 7.05073 19.4095C8.30631 17.9877 8.82312 16.7539 8.82312 14.6607V13.9507C8.82312 11.1474 9.52213 9.31436 10.9616 7.51993C13.1017 4.90299 16.5322 3.3335 19.9262 3.3335H20.0753C23.5422 3.3335 27.0837 4.97853 29.1873 7.70794C30.5522 9.46544 31.1784 11.2213 31.1784 13.9507V14.6607ZM15.1227 33.4349C15.1227 32.5956 15.893 32.2112 16.6052 32.0467C17.4384 31.8704 22.5154 31.8704 23.3486 32.0467C24.0608 32.2112 24.8311 32.5956 24.8311 33.4349C24.7897 34.2339 24.3209 34.9423 23.6732 35.3921C22.8334 36.0468 21.8478 36.4614 20.8175 36.6108C20.2477 36.6847 19.6878 36.6863 19.1379 36.6108C18.106 36.4614 17.1204 36.0468 16.2822 35.3905C15.6329 34.9423 15.1641 34.2339 15.1227 33.4349Z" fill="#84A840"/>
</svg>
